# xmcd
#
# Track frame offsets: 
#        150
#        19877
#        42479
#        60205
#        78460
#        100673
#        121948
#        139426
#        152463
#        178728
#        204554
#        215875
#        235853
#        249100
#        295461
#        313224
#        336537
#
# Disc length: 4718 seconds
#
# Revision: 1
# Processed by: cddbd v1.5.2PL0 Copyright (c) Steve Scherf et al.
# Submitted via: ExactAudioCopy v0.95b2
#
DISCID=fc126c11
DTITLE=Parliament - Osmium CD
DYEAR=2009
DGENRE=R&B
TTITLE0=I Call My Baby Pussycat
TTITLE1=Put Love In Your Life
TTITLE2=Little Ole Country Boy
TTITLE3=Moonshine Heather
TTITLE4=Oh Lord, Why Lord - Prayer
TTITLE5=My Automobile
TTITLE6=Nothing Before Me But Thang
TTITLE7=Funky Woman
TTITLE8=Livin' the Life
TTITLE9=The Silent Boatman
TTITLE10=Breakdown (Mono Single Version)
TTITLE11=Red Hot Mama
TTITLE12=Come In Out Of The Rain
TTITLE13=Loose Booty
TTITLE14=Fantasy Is Reality
TTITLE15=Unfinished Instrumental
TTITLE16=Breakdown (Stereo Unedited Version)
EXTD=
EXTT0=
EXTT1=
EXTT2=
EXTT3=
EXTT4=
EXTT5=
EXTT6=
EXTT7=
EXTT8=
EXTT9=
EXTT10=
EXTT11=
EXTT12=
EXTT13=
EXTT14=
EXTT15=
EXTT16=
PLAYORDER=
